<svg width="115" height="35" viewBox="0 0 115 35" fill="none" xmlns="http://www.w3.org/2000/svg">
<path fill-rule="evenodd" clip-rule="evenodd" d="M83.6219 10.6189H90.2748V33.5627H83.6219V10.6189ZM86.9483 7.42047C85.7258 7.42047 84.7307 7.06508 83.9631 6.35431C83.1955 5.64354 82.8116 4.76218 82.8116 3.71023C82.8116 2.65829 83.1955 1.77693 83.9631 1.06616C84.7307 0.355387 85.7258 0 86.9483 0C88.1709 0 89.166 0.341172 89.9336 1.02351C90.7012 1.67743 91.085 2.53035 91.085 3.5823C91.085 4.6911 90.7012 5.61511 89.9336 6.35431C89.1944 7.06508 88.1993 7.42047 86.9483 7.42047ZM62.5365 32.6245C63.9865 33.4774 65.7208 33.9039 67.7394 33.9039C69.9001 33.9039 71.8332 33.4205 73.5391 32.4539C75.2733 31.4588 76.638 30.0799 77.6331 28.3172C78.6566 26.5545 79.1684 24.479 79.1684 22.0908C79.1684 19.6742 78.6566 17.5845 77.6331 15.8218C76.638 14.0591 75.2733 12.6944 73.5391 11.7278C71.8332 10.7611 69.9001 10.2778 67.7394 10.2778C65.8061 10.2778 64.1144 10.7042 62.6645 11.5572C61.9844 11.9572 61.3731 12.4542 60.8307 13.0481V1.91909H54.1778V33.5627H60.5321V30.9134C61.1059 31.6056 61.774 32.176 62.5365 32.6245ZM69.5305 27.6775C68.6776 28.1893 67.6967 28.4451 66.5879 28.4451C65.4791 28.4451 64.484 28.1893 63.6027 27.6775C62.7213 27.1657 62.0247 26.4408 61.513 25.5025C61.0012 24.5359 60.7454 23.3986 60.7454 22.0908C60.7454 20.7546 61.0012 19.6173 61.513 18.6791C62.0247 17.7409 62.7213 17.0159 63.6027 16.5041C64.484 15.9924 65.4791 15.7365 66.5879 15.7365C67.6967 15.7365 68.6776 15.9924 69.5305 16.5041C70.4119 17.0159 71.1082 17.7409 71.62 18.6791C72.1602 19.6173 72.4303 20.7546 72.4303 22.0908C72.4303 23.3986 72.1602 24.5359 71.62 25.5025C71.1082 26.4408 70.4119 27.1657 69.5305 27.6775ZM16.3762 34.5862C14.0164 34.5862 11.8273 34.2024 9.80866 33.4348C7.8185 32.6671 6.08421 31.5867 4.60581 30.1936C3.15583 28.8005 2.01859 27.1657 1.1941 25.2893C0.398033 23.4129 0 21.3658 0 19.1482C0 16.9306 0.398033 14.8836 1.1941 13.0071C2.01859 11.1307 3.17005 9.49593 4.64845 8.10281C6.12686 6.7097 7.86115 5.62932 9.85131 4.86168C11.8415 4.09405 14.0022 3.71023 16.3336 3.71023C18.6933 3.71023 20.8541 4.09405 22.8158 4.86168C24.806 5.62932 26.526 6.7097 27.976 8.10281C29.4544 9.49593 30.6059 11.1307 31.4304 13.0071C32.2549 14.8552 32.6671 16.9022 32.6671 19.1482C32.6671 21.3658 32.2549 23.4271 31.4304 25.3319C30.6059 27.2084 29.4544 28.8432 27.976 30.2363C27.3356 30.839 25.3863 28.5134 23.2378 25.7947C23.9689 24.9993 24.539 24.0774 24.9481 23.029C25.4314 21.8634 25.6731 20.5698 25.6731 19.1482C25.6731 17.7267 25.4314 16.4331 24.9481 15.2674C24.4932 14.1017 23.8393 13.0924 22.9864 12.2395C22.1619 11.3866 21.181 10.7327 20.0438 10.2778C18.9066 9.82288 17.6698 9.59543 16.3336 9.59543C14.9973 9.59543 13.7606 9.82288 12.6233 10.2778C11.5145 10.7327 10.5337 11.3866 9.68072 12.2395C8.8278 13.0924 8.15967 14.1017 7.67635 15.2674C7.22145 16.4331 6.994 17.7267 6.994 19.1482C6.994 20.5413 7.22145 21.8349 7.67635 23.029C8.15967 24.1947 8.81358 25.204 9.63808 26.0569C10.491 26.9099 11.4861 27.5638 12.6233 28.0187C13.7606 28.4736 14.9973 28.701 16.3336 28.701C16.4741 28.701 16.6134 28.6985 16.7515 28.6935C17.1625 31.8758 17.364 34.5862 16.3762 34.5862ZM16.1589 24.318C16.0979 24.3206 16.0365 24.3219 15.9747 24.3219C13.6224 24.3219 11.7155 22.4149 11.7155 20.0626C11.7155 17.7103 13.6224 15.8033 15.9747 15.8033C18.3271 15.8033 20.234 17.7103 20.234 20.0626C20.234 20.6232 20.1257 21.1586 19.9289 21.6488C20.7287 22.6018 21.5842 23.6912 22.4303 24.7687L22.4319 24.7707C22.7022 25.1149 22.9715 25.4578 23.2378 25.7947C23.156 25.8837 23.0722 25.9711 22.9864 26.0569C22.1335 26.9099 21.1384 27.5638 20.0011 28.0187C19.009 28.4257 17.9258 28.6506 16.7515 28.6935C16.663 28.0082 16.5647 27.3011 16.4666 26.5944C16.3598 25.8254 16.253 25.057 16.1589 24.318ZM35.9781 33.5627V10.6189H42.3324V13.6315C42.9593 12.7768 43.7554 12.0853 44.7206 11.5572C46.2275 10.7042 48.0613 10.2778 50.222 10.2778V16.4189C49.9377 16.3904 49.6818 16.3762 49.4544 16.3762C49.2269 16.3478 48.9853 16.3336 48.7294 16.3336C46.9098 16.3336 45.4314 16.8595 44.2942 17.9115C43.1854 18.935 42.6309 20.5413 42.6309 22.7305V33.5627H35.9781ZM98.4962 33.2215C100.316 33.6764 102.206 33.9039 104.168 33.9039C106.471 33.9039 108.419 33.5911 110.011 32.9656C111.631 32.3402 112.868 31.4872 113.721 30.4069C114.574 29.2981 115 28.0329 115 26.6113C115 25.3035 114.744 24.2516 114.233 23.4555C113.721 22.631 113.053 21.9913 112.228 21.5364C111.432 21.0531 110.537 20.6835 109.542 20.4276C108.547 20.1717 107.551 19.9869 106.556 19.8732C105.59 19.7311 104.694 19.5747 103.87 19.4041C103.045 19.2335 102.377 19.0061 101.865 18.7218C101.382 18.4375 101.14 18.011 101.14 17.4424C101.14 16.8169 101.481 16.3051 102.164 15.9071C102.846 15.5091 103.926 15.31 105.405 15.31C106.457 15.31 107.537 15.438 108.646 15.6939C109.783 15.9213 110.906 16.362 112.015 17.0159L114.233 12.2822C113.152 11.6282 111.802 11.1307 110.181 10.7895C108.561 10.4484 106.969 10.2778 105.405 10.2778C103.187 10.2778 101.282 10.6047 99.6903 11.2586C98.0981 11.8841 96.8756 12.7513 96.0227 13.8601C95.1982 14.9689 94.7859 16.2483 94.7859 17.6982C94.7859 19.0061 95.0276 20.0722 95.5109 20.8967C96.0227 21.7212 96.6908 22.3751 97.5153 22.8585C98.3398 23.3418 99.2496 23.7114 100.245 23.9673C101.24 24.1947 102.221 24.3795 103.187 24.5217C104.182 24.6638 105.092 24.806 105.917 24.9481C106.741 25.0903 107.395 25.3035 107.878 25.5878C108.39 25.8437 108.646 26.2417 108.646 26.7819C108.646 27.4358 108.319 27.9476 107.665 28.3172C107.04 28.6868 105.959 28.8716 104.424 28.8716C103.031 28.8716 101.609 28.6726 100.159 28.2745C98.7378 27.8481 97.5011 27.3079 96.4492 26.654L94.2316 31.4304C95.2835 32.1412 96.705 32.7382 98.4962 33.2215Z" fill="#31366E"/>
</svg>
